PathFileType	4	(X/Y/Z)	C:\Users\86182\Documents\cortex\Trimmed_M3_L13.trc
DataRate	CameraRate	NumFrames	NumMarkers	Units	OrigDataRate	OrigDataStartFrame	OrigNumFrames
100.00	100.00	       84	2	mm	100.00	721	       901
Frame#	Time	gripper			box			
		X1	Y1	Z1	X2	Y2	Z2	

721	7.200	273.46866	149.79173	292.87006	274.97336	148.03435	157.30518	
722	7.210	273.46866	149.79173	292.87006	274.96323	148.03911	157.27177	
723	7.220	273.46866	149.79173	292.87006	275.00928	148.07333	157.27727	
724	7.230	273.46866	149.79173	292.87006	275.04419	148.04398	157.24530	
725	7.240	273.46411	149.79369	292.87018	275.05252	148.08632	157.24927	
726	7.250	273.46866	149.79173	292.87006	275.10568	148.09393	157.23187	
727	7.260	273.46866	149.79173	292.87006	275.09943	148.08727	157.26978	
728	7.270	273.46866	149.79173	292.87006	275.07324	148.09502	157.27066	
729	7.280	273.46866	149.79173	292.87006	275.10684	148.09427	157.27069	
730	7.290	273.46866	149.79173	292.87006	275.06036	148.09134	157.26680	
731	7.300	273.46866	149.79173	292.87006	275.04865	148.08420	157.28409	
732	7.310	273.46866	149.79173	292.87006	275.04727	148.10510	157.28654	
733	7.320	273.46866	149.79173	292.87006	275.01648	148.09344	157.28719	
734	7.330	273.46866	149.79173	292.87006	275.01843	148.08647	157.29614	
735	7.340	273.46866	149.79173	292.87006	275.02081	148.08583	157.29819	
736	7.350	273.46866	149.79173	292.87006	275.00748	148.07248	157.26311	
737	7.360	273.46866	149.79173	292.87006	275.00958	148.07915	157.29944	
738	7.370	273.45499	149.79756	292.87039	275.00079	148.07759	157.27727	
739	7.380	273.46866	149.79173	292.87006	275.00525	148.07626	157.28839	
740	7.390	273.46866	149.79173	292.87006	275.08978	148.08466	157.25810	
741	7.400	273.46640	149.79271	292.87012	275.08160	148.09555	157.26343	
742	7.410	273.46866	149.79173	292.87006	275.06412	148.09096	157.26462	
743	7.420	273.46866	149.79173	292.87006	275.10599	148.09805	157.24734	
744	7.430	273.46866	149.79173	292.87006	275.11642	148.07942	157.25450	
745	7.440	273.46866	149.79173	292.87006	275.05331	148.09323	157.26076	
746	7.450	273.46866	149.79173	292.87006	275.09149	148.10182	157.25670	
747	7.460	273.46866	149.79173	292.87006	275.09753	148.08771	157.24515	
748	7.470	273.46866	149.79173	292.87006	275.07837	148.08199	157.27332	
749	7.480	273.46866	149.79173	292.87006	275.05966	148.10469	157.27939	
750	7.490	273.45270	149.79854	292.87048	275.07428	148.10043	157.28792	
751	7.500	273.46866	149.79173	292.87006	275.07401	148.10643	157.28362	
752	7.510	273.46866	149.79173	292.87006	275.16092	148.11244	157.29375	
753	7.520	273.46866	149.79173	292.87006	275.03854	148.09782	157.28978	
754	7.530	273.46866	149.79173	292.87006	275.08643	148.10167	157.26036	
755	7.540	273.46866	149.79173	292.87006	275.05200	148.10384	157.29060	
756	7.550	273.46866	149.79173	292.87006	275.05862	148.07170	157.26912	
757	7.560	273.46866	149.79173	292.87006	275.07938	148.08882	157.28490	
758	7.570	273.46866	149.79173	292.87006	275.12427	148.09340	157.25368	
759	7.580	273.46866	149.79173	292.87006	275.12085	148.09747	157.24710	
760	7.590	273.46866	149.79173	292.87006	275.11792	148.09575	157.26596	
761	7.600	273.46866	149.79173	292.87006	275.08896	148.08369	157.27333	
762	7.610	273.46866	149.79173	292.87006	275.04617	148.07047	157.27705	
763	7.620	273.46866	149.79173	292.87006	275.06265	148.09589	157.27235	
764	7.630	273.46866	149.79173	292.87006	275.08798	148.10536	157.28886	
765	7.640	273.46866	149.79173	292.87006	275.05728	148.08185	157.28041	
766	7.650	273.46866	149.79173	292.87006	275.01709	148.08362	157.29860	
767	7.660	273.46866	149.79173	292.87006	275.00012	148.08170	157.29131	
768	7.670	273.46866	149.79173	292.87006	275.04022	148.08707	157.30762	
769	7.680	273.46866	149.79173	292.87006	275.02484	148.10002	157.29539	
770	7.690	273.46866	149.79173	292.87006	275.02942	148.10924	157.27669	
771	7.700	273.46866	149.79173	292.87006	275.05612	148.10387	157.30266	
772	7.710	273.47028	149.79182	292.86887	275.05057	148.10358	157.29486	
773	7.720	273.46866	149.79173	292.87006	275.00888	148.11575	157.28761	
774	7.730	273.46866	149.79173	292.87006	274.98608	148.09074	157.28810	
775	7.740	273.46866	149.79173	292.87006	274.99872	148.10031	157.28444	
776	7.750	273.46866	149.79173	292.87006	275.02554	148.11205	157.27631	
777	7.760	273.46866	149.79173	292.87006	274.98383	148.11769	157.27611	
778	7.770	273.48160	149.79239	292.86050	275.00128	148.11635	157.28763	
779	7.780	273.46866	149.79173	292.87006	275.00684	148.10602	157.27757	
780	7.790	273.47028	149.79182	292.86887	275.03946	148.09695	157.29610	
781	7.800	273.47675	149.79214	292.86411	274.98587	148.09579	157.28729	
782	7.810	273.47952	149.79126	292.86359	275.03299	148.10808	157.27554	
783	7.820	273.48483	149.79256	292.85815	274.99219	148.08704	157.28084	
784	7.830	273.46866	149.79173	292.87006	274.98932	148.08133	157.28569	
785	7.840	273.47516	149.79207	292.86526	274.99429	148.12312	157.28084	
786	7.850	273.48642	149.79263	292.85696	275.02161	148.09851	157.28433	
787	7.860	273.46866	149.79173	292.87006	275.04034	148.12263	157.25458	
788	7.870	273.46866	149.79173	292.87006	275.03174	148.10863	157.27867	
789	7.880	273.46506	149.79482	292.86786	274.96875	148.12354	157.27103	
790	7.890	273.45499	149.79756	292.87039	275.03705	148.07884	157.26305	
791	7.900	273.46182	149.79466	292.87024	274.95224	148.11441	157.27689	
792	7.910	273.44818	149.80046	292.87057	274.92740	148.14865	157.27217	
793	7.920	273.45044	149.79950	292.87051	274.96918	148.09375	157.28015	
794	7.930	273.46866	149.79173	292.87006	274.98001	148.12045	157.27573	
795	7.940	273.45953	149.79562	292.87030	274.97202	148.10175	157.27361	
796	7.950	273.44818	149.80046	292.87057	274.94263	148.09023	157.27452	
797	7.960	273.46866	149.79173	292.87006	274.94699	148.08694	157.27859	
798	7.970	273.46866	149.79173	292.87006	274.91824	148.09381	157.27576	
799	7.980	273.46866	149.79173	292.87006	274.89362	148.09981	157.27844	
800	7.990	273.46866	149.79173	292.87006	274.97684	148.06696	157.26230	
801	8.000	273.46866	149.79173	292.87006	274.94794	148.06328	157.27927	
802	8.010	273.46866	149.79173	292.87006	275.02554	148.08685	157.25705	
803	8.020	273.46866	149.79173	292.87006	275.04022	148.12231	157.24593	
804	8.030	273.46866	149.79173	292.87006	275.08051	148.08127	157.24673	
